<svg height="512pt" viewBox="-8 0 512 512" width="512pt" xmlns="http://www.w3.org/2000/svg"><path d="m100.859375 456.128906-96.03125-82.703125c-5.816406-5.011719-6.46875-13.789062-1.460937-19.605469l52.210937-60.625 117.097656 100.851563-52.210937 60.621094c-5.011719 5.816406-13.785156 6.472656-19.605469 1.460937zm0 0" fill="#5290d9"/><path d="m100.859375 456.128906-6.09375-5.25 61.28125-71.15625 16.628906 14.320313-52.210937 60.625c-5.011719 5.816406-13.785156 6.472656-19.605469 1.460937zm0 0" fill="#0573cf"/><path d="m78.664062 266.378906 117.09375 100.851563-22.867187 26.550781-117.09375-100.851562zm0 0" fill="#9ae7fd"/><path d="m179.128906 352.90625 16.628906 14.324219-22.867187 26.550781-16.628906-14.324219zm0 0" fill="#64dcfc"/><path d="m306.824219 286.960938 98.011719-113.804688c8.417968-9.773438 7.320312-24.527344-2.457032-32.945312-8.550781-7.367188-20.910156-7.449219-29.507812-.808594l28.167968-32.707032c8.421876-9.777343 7.320313-24.53125-2.457031-32.949218-9.773437-8.421875-24.527343-7.320313-32.945312 2.453125l18.253906-21.191407c8.417969-9.777343 7.320313-24.53125-2.457031-32.949218-9.777344-8.421875-24.53125-7.320313-32.949219 2.453125l-3.007813 3.492187-15.246093 17.703125c8.417969-9.777343 7.320312-24.527343-2.457031-32.949219-9.777344-8.421874-24.527344-7.316406-32.949219 2.460938l-98.011719 113.800781.09375.078125-26.382812 30.636719c-2.667969 3.09375-7.742188.964844-7.410157-3.109375 2.433594-15.925781 2.515625-32.09375-1.210937-47.816406-3.246094-13.707032-21.65625-19.644532-31.429688-7.96875-44.699218 53.371094-30.644531 140.976562-30.644531 140.976562l-21.15625 24.566406 117.019531 100.785157 23.261719-27.007813c44.242187.351563 82.597656-47.105468 82.597656-47.105468l5.257813-6.109376zm0 0" fill="#ffbfab"/><path d="m218.953125 340.164062-23.257813 27.003907-16.554687-14.257813 18.902344-21.949218c2.667969-3.097657 6.464843-4.945313 10.535156-5.308594 41.582031-3.738282 76.421875-46.855469 76.421875-46.855469l5.261719-6.109375.015625.011719 98.003906-113.792969c5.847656-6.789062 7.105469-15.972656 4.054688-23.769531 3.742187.847656 7.332031 2.636719 10.40625 5.390625 9.535156 8.550781 10.089843 23.339844 1.734374 33.042968l-97.652343 113.382813-.007813-.007813-5.257812 6.109376c-.003906 0-38.359375 47.457031-82.605469 47.109374zm0 0" fill="#f9b19d"/><path d="m334.421875 40.878906-111.046875 128.9375c-1.878906 2.179688-5.175781 2.425782-7.355469.550782-1.09375-.941407-1.695312-2.234376-1.800781-3.566407-.09375-1.328125.316406-2.703125 1.253906-3.789062l119.5625-138.824219c2.023438 7.265625.488282 15.382812-4.804687 21.527344l4.203125-4.878906zm0 0" fill="#f9b19d"/><path d="m385.125 53.425781-127.054688 147.523438c-1.878906 2.179687-5.171874 2.417969-7.347656.539062-1.09375-.941406-1.703125-2.222656-1.800781-3.5625-.101563-1.324219.308594-2.699219 1.242187-3.78125l138.484376-160.792969c1.902343 6.699219.789062 14.132813-3.523438 20.074219zm0 0" fill="#f9b19d"/><path d="m373.167969 139.183594-79.679688 92.515625c-1.882812 2.1875-5.175781 2.425781-7.355469.546875-1.085937-.933594-1.695312-2.234375-1.800781-3.5625-.097656-1.324219.3125-2.699219 1.253907-3.792969l120.273437-139.652344c1.988281 7.25.457031 15.328125-4.824219 21.457031l-28.167968 32.707032c.097656-.082032.203124-.15625.300781-.21875zm0 0" fill="#f9b19d"/><path d="m450.539062 512h-126.734374c-7.679688 0-13.902344-6.222656-13.902344-13.902344v-80.007812h154.539062v80.007812c0 7.679688-6.222656 13.902344-13.902344 13.902344zm0 0" fill="#5290d9"/><path d="m450.539062 512h-8.042968v-93.910156h21.945312v80.007812c0 7.679688-6.222656 13.902344-13.902344 13.902344zm0 0" fill="#0573cf"/><path d="m309.902344 382.707031h154.539062v35.039063h-154.539062zm0 0" fill="#9ae7fd"/><path d="m442.496094 382.707031h21.945312v35.039063h-21.945312zm0 0" fill="#64dcfc"/><path d="m496.203125 249.410156v-150.191406c0-12.902344-10.457031-23.363281-23.359375-23.363281-11.289062 0-20.707031 8.003906-22.886719 18.644531v-43.164062c0-12.902344-10.460937-23.363282-23.363281-23.363282s-23.363281 10.460938-23.363281 23.363282v-27.972657c0-12.902343-10.460938-23.363281-23.363281-23.363281-12.902344 0-23.363282 10.460938-23.363282 23.363281v27.972657c0-12.902344-10.460937-23.363282-23.363281-23.363282s-23.363281 10.460938-23.363281 23.363282v150.1875h.125v40.433593c0 4.082031-5.238282 5.78125-7.640625 2.480469-8.550781-13.65625-19.039063-25.960938-32.121094-35.445312-11.40625-8.265626-29.230469-.75-29.019531 14.476562.960937 69.605469 68.78125 126.816406 68.78125 126.816406v32.421875h154.441406v-35.640625c33.753906-28.609375 31.839844-89.597656 31.839844-89.597656v-8.058594zm0 0" fill="#ffcebf"/><g fill="#ffbfab"><path d="m464.34375 347.066406v35.640625h-21.847656v-28.972656c0-4.085937 1.667968-7.960937 4.515625-10.894531 29.070312-29.96875 27.332031-85.375 27.332031-85.375v-8.0625h.019531v-150.179688c0-8.957031-5.039062-16.738281-12.441406-20.65625 3.390625-1.800781 7.277344-2.785156 11.402344-2.703125 12.804687.253907 22.878906 11.097657 22.878906 23.902344v149.636719h-.011719v8.0625s1.90625 60.992187-31.847656 89.601562zm0 0"/><path d="m356.53125 44.9375v170.167969c0 2.875-2.339844 5.214843-5.214844 5.214843-1.445312 0-2.742187-.585937-3.691406-1.523437-.9375-.949219-1.523438-2.257813-1.523438-3.691406v-183.214844c6.273438 4.183594 10.40625 11.335937 10.40625 19.449219v-6.441406zm0 0"/><path d="m403.136719 21.359375v194.695313c0 2.875-2.339844 5.203124-5.21875 5.203124-1.441407 0-2.738281-.574218-3.6875-1.523437-.9375-.9375-1.527344-2.246094-1.527344-3.679687v-212.207032c5.8125 3.835938 9.824219 10.191406 10.433594 17.511719zm0 0"/><path d="m450.039062 94.140625v122.097656c0 2.886719-2.339843 5.214844-5.214843 5.214844-1.433594 0-2.742188-.585937-3.691407-1.523437-.9375-.9375-1.523437-2.246094-1.523437-3.691407v-184.304687c6.234375 4.195312 10.34375 11.316406 10.34375 19.40625v43.164062c.023437-.125.054687-.25.085937-.363281zm0 0"/></g></svg>